<svg width="16" height="16" viewBox="0 0 16 16" fill="none" xmlns="http://www.w3.org/2000/svg">
<path fill-rule="evenodd" clip-rule="evenodd" d="M0.82369 3.36134C3.54881 3.32462 6.0317 2.29273 7.92017 0.615234C9.80864 2.29273 12.2915 3.32462 15.0166 3.36134C15.1156 3.94637 15.1671 4.5474 15.1671 5.16035C15.1671 9.85777 12.1422 13.8539 7.92017 15.3349C3.6981 13.8539 0.673218 9.85777 0.673218 5.16035C0.673218 4.5474 0.724731 3.94637 0.82369 3.36134ZM11.2406 6.6577C11.5736 6.32728 11.5736 5.7915 11.2406 5.46107C10.9077 5.13065 10.3679 5.13065 10.0349 5.46107L7.0143 8.45891L5.80543 7.25915C5.47249 6.92873 4.93264 6.92873 4.5997 7.25915C4.26677 7.58957 4.26677 8.12536 4.5997 8.45578L6.41144 10.2539C6.74438 10.5843 7.28423 10.5843 7.61717 10.2539L11.2406 6.6577Z" fill="white"/>
</svg>
